<svg width="50" height="50" viewBox="0 0 50 50" fill="none" xmlns="http://www.w3.org/2000/svg">
<path d="M23 1.1547C24.2376 0.440169 25.7624 0.440169 27 1.1547L44.6506 11.3453C45.8882 12.0598 46.6506 13.3803 46.6506 14.8094V35.1906C46.6506 36.6197 45.8882 37.9402 44.6506 38.6547L27 48.8453C25.7624 49.5598 24.2376 49.5598 23 48.8453L5.34936 38.6547C4.11176 37.9402 3.34937 36.6197 3.34937 35.1906V14.8094C3.34937 13.3803 4.11176 12.0598 5.34937 11.3453L23 1.1547Z" fill="#F5F5F5"/>
<path fill-rule="evenodd" clip-rule="evenodd" d="M35.7499 19.25C35.7499 18.1455 34.8548 17.25 33.7501 17.25H21.2498C20.1452 17.25 19.25 18.1455 19.25 19.25C19.25 20.3545 20.1452 21.25 21.2498 21.25H33.7501C34.8548 21.25 35.7499 20.3545 35.7499 19.25ZM34.75 19.25C34.75 19.8025 34.3022 20.25 33.7501 20.25H21.2498C20.6977 20.25 20.2499 19.8025 20.2499 19.25C20.2499 18.6975 20.6977 18.25 21.2498 18.25H33.7501C34.3022 18.25 34.75 18.6975 34.75 19.25Z" fill="black"/>
<path fill-rule="evenodd" clip-rule="evenodd" d="M35.7499 25.2461C35.7499 24.1416 34.8548 23.2461 33.7501 23.2461H21.2498C20.1452 23.2461 19.25 24.1416 19.25 25.2461C19.25 26.3506 20.1452 27.2461 21.2498 27.2461H33.7501C34.8548 27.2461 35.7499 26.3506 35.7499 25.2461ZM34.75 25.2461C34.75 25.7986 34.3022 26.2461 33.7501 26.2461H21.2498C20.6977 26.2461 20.2499 25.7986 20.2499 25.2461C20.2499 24.6936 20.6977 24.2461 21.2498 24.2461H33.7501C34.3022 24.2461 34.75 24.6936 34.75 25.2461Z" fill="black"/>
<path fill-rule="evenodd" clip-rule="evenodd" d="M35.7499 31.2422C35.7499 30.1377 34.8548 29.2422 33.7501 29.2422H21.2498C20.1452 29.2422 19.25 30.1377 19.25 31.2422C19.25 32.3467 20.1452 33.2422 21.2498 33.2422H33.7501C34.8548 33.2422 35.7499 32.3467 35.7499 31.2422ZM34.75 31.2422C34.75 31.7947 34.3022 32.2422 33.7501 32.2422H21.2498C20.6977 32.2422 20.2499 31.7947 20.2499 31.2422C20.2499 30.6897 20.6977 30.2422 21.2498 30.2422H33.7501C34.3022 30.2422 34.75 30.6897 34.75 31.2422Z" fill="black"/>
<path fill-rule="evenodd" clip-rule="evenodd" d="M15.9999 17.0039C14.7577 17.0039 13.75 18.0116 13.75 19.2538C13.75 20.4954 14.7577 21.5037 15.9999 21.5037C17.2415 21.5037 18.2498 20.4954 18.2498 19.2538C18.2498 18.0116 17.2415 17.0039 15.9999 17.0039ZM15.9999 18.0035C16.6899 18.0035 17.2496 18.5638 17.2496 19.2538C17.2496 19.9438 16.6899 20.5036 15.9999 20.5036C15.3099 20.5036 14.7496 19.9438 14.7496 19.2538C14.7496 18.5638 15.3099 18.0035 15.9999 18.0035Z" fill="black"/>
<path fill-rule="evenodd" clip-rule="evenodd" d="M15.9999 23C14.7577 23 13.75 24.0077 13.75 25.2499C13.75 26.4915 14.7577 27.4998 15.9999 27.4998C17.2415 27.4998 18.2498 26.4915 18.2498 25.2499C18.2498 24.0077 17.2415 23 15.9999 23ZM15.9999 23.9996C16.6899 23.9996 17.2496 24.5599 17.2496 25.2499C17.2496 25.9399 16.6899 26.4996 15.9999 26.4996C15.3099 26.4996 14.7496 25.9399 14.7496 25.2499C14.7496 24.5599 15.3099 23.9996 15.9999 23.9996Z" fill="black"/>
<path fill-rule="evenodd" clip-rule="evenodd" d="M15.9999 28.9961C14.7577 28.9961 13.75 30.0038 13.75 31.246C13.75 32.4876 14.7577 33.4959 15.9999 33.4959C17.2415 33.4959 18.2498 32.4876 18.2498 31.246C18.2498 30.0038 17.2415 28.9961 15.9999 28.9961ZM15.9999 29.9957C16.6899 29.9957 17.2496 30.556 17.2496 31.246C17.2496 31.936 16.6899 32.4957 15.9999 32.4957C15.3099 32.4957 14.7496 31.936 14.7496 31.246C14.7496 30.556 15.3099 29.9957 15.9999 29.9957Z" fill="black"/>
</svg>
