<svg width="50" height="50" viewBox="0 0 50 50" fill="none" xmlns="http://www.w3.org/2000/svg">
<path d="M23 1.1547C24.2376 0.440169 25.7624 0.440169 27 1.1547L44.6506 11.3453C45.8882 12.0598 46.6506 13.3803 46.6506 14.8094V35.1906C46.6506 36.6197 45.8882 37.9402 44.6506 38.6547L27 48.8453C25.7624 49.5598 24.2376 49.5598 23 48.8453L5.34936 38.6547C4.11176 37.9402 3.34937 36.6197 3.34937 35.1906V14.8094C3.34937 13.3803 4.11176 12.0598 5.34937 11.3453L23 1.1547Z" fill="#F5F5F5"/>
<path d="M19.0906 25.0004C19.0906 28.0558 21.5758 30.5372 24.6274 30.5372C27.679 30.5372 30.1642 28.0521 30.1642 25.0004C30.1642 21.9488 27.679 19.4637 24.6274 19.4637C21.5758 19.4637 19.0906 21.9451 19.0906 25.0004ZM19.5562 25.0004C19.5562 22.2034 21.8304 19.9292 24.6274 19.9292C27.4244 19.9292 29.6986 22.2034 29.6986 25.0004C29.6986 27.7974 27.4244 30.0717 24.6274 30.0717C21.8304 30.0717 19.5562 27.7974 19.5562 25.0004Z" fill="black" stroke="black" stroke-width="0.1"/>
<path d="M21.95 15.8145C21.95 17.2932 23.154 18.4934 24.6289 18.4934C26.1039 18.4934 27.3078 17.2932 27.3078 15.8145C27.3078 14.3357 26.1039 13.1355 24.6289 13.1355C23.154 13.1355 21.95 14.3357 21.95 15.8145ZM22.4155 15.8108C22.4155 14.5904 23.4085 13.5974 24.6289 13.5974C25.8493 13.5974 26.8423 14.5904 26.8423 15.8108C26.8423 17.0312 25.8493 18.0242 24.6289 18.0242C23.4085 18.0242 22.4155 17.0312 22.4155 15.8108Z" fill="black" stroke="black" stroke-width="0.1"/>
<path d="M21.95 34.1875C21.95 35.6663 23.154 36.8664 24.6289 36.8664C26.1039 36.8664 27.3078 35.6663 27.3078 34.1875C27.3078 32.7088 26.1076 31.5086 24.6289 31.5086C23.1502 31.5086 21.95 32.7126 21.95 34.1875ZM22.4155 34.1875C22.4155 32.9671 23.4085 31.9741 24.6289 31.9741C25.8493 31.9741 26.8423 32.9671 26.8423 34.1875C26.8423 35.4079 25.8493 36.4009 24.6289 36.4009C23.4085 36.4009 22.4155 35.4079 22.4155 34.1875Z" fill="black" stroke="black" stroke-width="0.1"/>
<path d="M30.0303 19.7444L30.0303 19.7445C29.8422 20.4365 29.9325 21.159 30.2861 21.7798C30.7791 22.6491 31.686 23.1344 32.6188 23.1344C33.0665 23.1344 33.522 23.0215 33.9361 22.7806C35.219 22.0506 35.6704 20.4104 34.9404 19.1273C34.2104 17.8442 32.57 17.3965 31.287 18.1264L31.287 18.1265C30.6663 18.4801 30.2184 19.0559 30.0303 19.7444ZM34.5359 19.3612L34.536 19.3614C35.139 20.423 34.767 21.7807 33.7055 22.3837C32.6439 22.9867 31.2899 22.6147 30.6869 21.5532L30.6434 21.5779L30.6869 21.5533C30.3944 21.0368 30.3222 20.4412 30.4775 19.8704C30.6328 19.3 31.0046 18.8234 31.5174 18.5309L31.4927 18.4875L31.5174 18.5309C31.8604 18.3359 32.2359 18.2421 32.6077 18.2421C33.3808 18.2421 34.1317 18.643 34.5359 19.3612Z" fill="black" stroke="black" stroke-width="0.1"/>
<path d="M19.2296 30.2526L19.2296 30.2525C19.4177 29.5605 19.3274 28.838 18.9738 28.2172C18.2438 26.934 16.6034 26.4864 15.3204 27.2162C14.0335 27.9462 13.5858 29.5867 14.3158 30.8697C14.8088 31.739 15.7156 32.2242 16.6485 32.2242C17.0963 32.2242 17.5516 32.1113 17.9729 31.8706C18.5936 31.5169 19.0415 30.9412 19.2296 30.2526ZM15.5507 27.6208L15.5507 27.6207C15.8938 27.4257 16.2692 27.3319 16.6411 27.3319C17.4103 27.3319 18.1613 27.7328 18.573 28.4513C18.8655 28.9676 18.9377 29.5632 18.7824 30.134C18.6271 30.7044 18.2554 31.1809 17.7426 31.4735C16.6772 32.0766 15.3232 31.7045 14.7202 30.643C14.1172 29.5814 14.4892 28.2237 15.5507 27.6208Z" fill="black" stroke="black" stroke-width="0.1"/>
<path d="M31.3694 31.7989L31.3695 31.7989C31.772 32.0208 32.216 32.1338 32.6638 32.1338C32.9126 32.1338 33.1608 32.0961 33.4045 32.0286L33.4049 32.0285C34.0898 31.8328 34.6618 31.3774 35.0079 30.7529C35.3541 30.1282 35.433 29.4057 35.2375 28.7175L35.2374 28.7174C35.0418 28.0326 34.5864 27.4606 33.9619 27.1145C33.3372 26.7683 32.6146 26.6893 31.9265 26.8849L31.9264 26.8849C31.2416 27.0806 30.6696 27.536 30.3235 28.1604C29.9773 28.7851 29.8983 29.5077 30.0939 30.1959L30.0939 30.196C30.2896 30.8808 30.7449 31.4528 31.3694 31.7989ZM32.0572 27.3245L32.0572 27.3245C32.2596 27.2666 32.4654 27.2378 32.6712 27.2378C33.0393 27.2378 33.4076 27.3316 33.7399 27.5158L33.7399 27.5158C34.2564 27.8011 34.6317 28.2703 34.7942 28.8408L34.7942 28.8409C34.9567 29.4078 34.8881 30.0071 34.6028 30.5236C34.3175 31.04 33.8483 31.4153 33.2778 31.5778L33.2777 31.5778C32.7108 31.7403 32.1115 31.6718 31.5951 31.3865C31.0787 31.1012 30.7033 30.632 30.5408 30.0614L30.5408 30.0614C30.3783 29.4944 30.4469 28.8952 30.7322 28.3787C31.0175 27.8623 31.4867 27.4869 32.0572 27.3245Z" fill="black" stroke="black" stroke-width="0.1"/>
<path d="M15.2929 22.8965L15.293 22.8966C15.6955 23.1185 16.1395 23.2314 16.5873 23.2314C16.836 23.2314 17.0879 23.1938 17.3283 23.1262L17.3284 23.1261C18.0133 22.9304 18.5853 22.4751 18.9314 21.8506C19.2776 21.2259 19.3565 20.5033 19.161 19.8151L19.1609 19.8151C18.9653 19.1302 18.5099 18.5582 17.8854 18.2121C17.2607 17.8659 16.5382 17.787 15.85 17.9825L15.8499 17.9826C15.1651 18.1782 14.5931 18.6336 14.247 19.2581C13.9009 19.8826 13.8181 20.6052 14.0174 21.2937C14.2131 21.9785 14.6685 22.5504 15.2929 22.8965ZM15.9807 18.4221L15.9808 18.4221C16.1831 18.3643 16.389 18.3354 16.5947 18.3354C16.9665 18.3354 17.3311 18.4292 17.6634 18.6135L17.6635 18.6135C18.1798 18.8987 18.5552 19.3716 18.7177 19.9386C18.8802 20.5055 18.8116 21.1048 18.5263 21.6212C18.2411 22.1376 17.7682 22.513 17.2012 22.6755C16.6343 22.838 16.035 22.7694 15.5186 22.4841C15.0023 22.1989 14.6268 21.726 14.4643 21.159C14.3018 20.5921 14.3704 19.9928 14.6557 19.4764C14.941 18.96 15.4102 18.5846 15.9807 18.4221Z" fill="black" stroke="black" stroke-width="0.1"/>
<path d="M24.4031 31.742C24.4031 31.8693 24.5067 31.9729 24.634 31.9729C24.7637 31.9729 24.8692 31.8705 24.865 31.7411V30.302C24.865 30.1747 24.7614 30.0711 24.634 30.0711C24.5067 30.0711 24.4031 30.1747 24.4031 30.302V31.742Z" fill="black" stroke="black" stroke-width="0.1"/>
<path d="M24.4031 19.6956C24.4031 19.8229 24.5067 19.9265 24.634 19.9265C24.7637 19.9265 24.8692 19.824 24.865 19.6947V18.263C24.865 18.1356 24.7614 18.032 24.634 18.032C24.5067 18.032 24.4031 18.1356 24.4031 18.263V19.6956Z" fill="black" stroke="black" stroke-width="0.1"/>
<path d="M18.5336 28.3923L18.5336 28.3923L18.534 28.393C18.5766 28.4687 18.6566 28.5108 18.7363 28.5108C18.7729 28.5108 18.8148 28.5019 18.8494 28.4822L20.1081 27.7846C20.2222 27.7226 20.2585 27.581 20.1981 27.4696C20.1362 27.3553 19.9944 27.3189 19.883 27.3793L19.883 27.3793L19.8825 27.3795L18.6237 28.0773C18.5095 28.1393 18.4733 28.2809 18.5336 28.3923Z" fill="black" stroke="black" stroke-width="0.1"/>
<path d="M29.0648 22.5329L29.0648 22.5329L29.0652 22.5336C29.1078 22.6094 29.1878 22.6514 29.2676 22.6514C29.3057 22.6514 29.3429 22.6418 29.3785 22.624L29.3786 22.624L29.3804 22.623L30.6393 21.9253C30.7535 21.8633 30.7897 21.7216 30.7294 21.6102C30.6675 21.4959 30.5257 21.4596 30.4142 21.5199L30.4142 21.5199L30.4138 21.5201L29.1549 22.2179C29.0408 22.2799 29.0045 22.4216 29.0648 22.5329Z" fill="black" stroke="black" stroke-width="0.1"/>
<path d="M18.7186 21.7456L18.7186 21.7456L18.7191 21.7459L19.9555 22.4804C19.9936 22.5041 20.0323 22.5135 20.0738 22.5135C20.1482 22.5135 20.2287 22.4766 20.2721 22.4002C20.3382 22.2907 20.2993 22.1501 20.1921 22.0848L20.1921 22.0848L20.1917 22.0845L18.955 21.3499C18.8454 21.2834 18.7044 21.3222 18.6391 21.4295C18.5724 21.5391 18.6112 21.6802 18.7186 21.7456Z" fill="black" stroke="black" stroke-width="0.1"/>
<path d="M29.0702 27.9125L29.0702 27.9125L29.0706 27.9127L30.3034 28.6472C30.3414 28.6709 30.3802 28.6804 30.4217 28.6804C30.5003 28.6804 30.5768 28.643 30.6199 28.567C30.686 28.4575 30.6472 28.3169 30.54 28.2517L30.54 28.2517L30.5396 28.2514L29.3066 27.5168C29.1983 27.4511 29.0565 27.484 28.9904 27.5968C28.9241 27.7063 28.9629 27.8472 29.0702 27.9125Z" fill="black" stroke="black" stroke-width="0.1"/>
<path d="M21.959 24.9286H21.9073C21.4716 24.9286 21.1172 24.5741 21.1172 24.1384V23.0344C21.1172 22.9347 21.1984 22.8535 21.2981 22.8535H22.5683C22.668 22.8535 22.7492 22.9347 22.7492 23.0344V24.1384C22.7529 24.5741 22.3984 24.9286 21.959 24.9286ZM21.4827 23.2117V24.1347C21.4827 24.3711 21.6747 24.5631 21.911 24.5631H21.9627C22.199 24.5631 22.391 24.3711 22.391 24.1347V23.2117H21.4827Z" fill="black"/>
<path d="M23.3359 24.9286H23.2066C22.7562 24.9286 22.3906 24.5631 22.3906 24.1126C22.3906 24.0129 22.4719 23.9317 22.5715 23.9317C22.6712 23.9317 22.7525 24.0129 22.7525 24.1126C22.7525 24.3637 22.9555 24.5667 23.2066 24.5667H23.3359C23.5869 24.5667 23.79 24.3637 23.79 24.1126V23.2154H22.5715C22.4719 23.2154 22.3906 23.1341 22.3906 23.0344C22.3906 22.9347 22.4719 22.8535 22.5715 22.8535H23.9709C24.0706 22.8535 24.1519 22.9347 24.1519 23.0344V24.1126C24.1519 24.5631 23.7863 24.9286 23.3359 24.9286Z" fill="black"/>
<path d="M24.6641 24.9286H24.6051C24.1546 24.9286 23.7891 24.5631 23.7891 24.1126C23.7891 24.0129 23.8703 23.9317 23.97 23.9317C24.0697 23.9317 24.1509 24.0129 24.1509 24.1126C24.1509 24.3637 24.354 24.5667 24.6051 24.5667H24.6641C24.9152 24.5667 25.1183 24.3637 25.1183 24.1126V23.2154H23.97C23.8703 23.2154 23.7891 23.1341 23.7891 23.0344C23.7891 22.9347 23.8703 22.8535 23.97 22.8535H25.2992C25.3989 22.8535 25.4801 22.9347 25.4801 23.0344V24.1126C25.4801 24.5631 25.1146 24.9286 24.6641 24.9286Z" fill="black"/>
<path d="M25.9923 24.9286H25.9332C25.4827 24.9286 25.1172 24.5631 25.1172 24.1126C25.1172 24.0129 25.1984 23.9317 25.2981 23.9317C25.3978 23.9317 25.479 24.0129 25.479 24.1126C25.479 24.3637 25.6821 24.5667 25.9332 24.5667H25.9923C26.2433 24.5667 26.4464 24.3637 26.4464 24.1126V23.2154H25.2981C25.1984 23.2154 25.1172 23.1341 25.1172 23.0344C25.1172 22.9347 25.1984 22.8535 25.2981 22.8535H26.6273C26.727 22.8535 26.8083 22.9347 26.8083 23.0344V24.1126C26.8083 24.5631 26.4427 24.9286 25.9923 24.9286Z" fill="black"/>
<path d="M27.3204 24.9284H27.265C26.8145 24.9284 26.4453 24.5591 26.4453 24.1087V23.0305C26.4453 22.9308 26.5265 22.8496 26.6262 22.8496H27.9555C28.0552 22.8496 28.1364 22.9308 28.1364 23.0305V24.1087C28.1401 24.5591 27.7709 24.9284 27.3204 24.9284ZM26.8109 23.2115V24.105C26.8109 24.3561 27.0139 24.5591 27.265 24.5591H27.3204C27.5715 24.5591 27.7745 24.3561 27.7745 24.105V23.2115H26.8109Z" fill="black"/>
<path d="M27.9573 23.2113C27.8834 23.2113 27.817 23.167 27.7874 23.0932L27.3923 22.063H21.8982L21.4662 23.1006C21.4293 23.1929 21.3185 23.2372 21.2299 23.1966C21.1376 23.1596 21.0933 23.0526 21.1302 22.9602L21.6102 21.8119C21.6397 21.7455 21.7062 21.7012 21.7763 21.7012H27.5142C27.588 21.7012 27.6582 21.7492 27.684 21.8193L28.1234 22.9676C28.1603 23.0599 28.1123 23.167 28.02 23.2039C27.9979 23.2076 27.9757 23.2113 27.9573 23.2113Z" fill="black"/>
<path d="M27.2963 28.303H21.9387C21.839 28.303 21.7578 28.2218 21.7578 28.1221V24.7473C21.7578 24.6476 21.839 24.5664 21.9387 24.5664C22.0384 24.5664 22.1197 24.6476 22.1197 24.7473V27.9412H27.1154V24.7473C27.1154 24.6476 27.1966 24.5664 27.2963 24.5664C27.396 24.5664 27.4772 24.6476 27.4772 24.7473V28.1221C27.4772 28.2218 27.396 28.303 27.2963 28.303Z" fill="black"/>
<path d="M26.3061 28.3025C26.2064 28.3025 26.1251 28.2212 26.1251 28.1215V25.8655H25.2759V28.1215C25.2759 28.2212 25.1947 28.3025 25.095 28.3025C24.9953 28.3025 24.9141 28.2212 24.9141 28.1215V25.6809C24.9141 25.5812 24.9953 25.5 25.095 25.5H26.3098C26.4094 25.5 26.4907 25.5812 26.4907 25.6809V28.1215C26.487 28.2212 26.4058 28.3025 26.3061 28.3025Z" fill="black"/>
<path d="M24.1605 27.1654H22.9309C22.8312 27.1654 22.75 27.0842 22.75 26.9845V25.6848C22.75 25.5851 22.8312 25.5039 22.9309 25.5039H24.1605C24.2602 25.5039 24.3414 25.5851 24.3414 25.6848V26.9845C24.3414 27.0842 24.2602 27.1654 24.1605 27.1654ZM23.1118 26.7999H23.9795V25.8621H23.1118V26.7999Z" fill="black"/>
</svg>
