<svg width="50" height="50" viewBox="0 0 50 50" fill="none" xmlns="http://www.w3.org/2000/svg">
<path d="M23 1.1547C24.2376 0.440169 25.7624 0.440169 27 1.1547L44.6506 11.3453C45.8882 12.0598 46.6506 13.3803 46.6506 14.8094V35.1906C46.6506 36.6197 45.8882 37.9402 44.6506 38.6547L27 48.8453C25.7624 49.5598 24.2376 49.5598 23 48.8453L5.34936 38.6547C4.11176 37.9402 3.34937 36.6197 3.34937 35.1906V14.8094C3.34937 13.3803 4.11176 12.0598 5.34937 11.3453L23 1.1547Z" fill="#F5F5F5"/>
<g clip-path="url(#clip0_1798_216)">
<path d="M13.6562 25.8438V17.2188C13.6562 16.8051 13.9926 16.4688 14.4062 16.4688H23.0312C23.4449 16.4688 23.7812 16.8051 23.7812 17.2188V22.2812H24.5312V17.2188C24.5312 16.3937 23.8563 15.7188 23.0312 15.7188H14.4062C13.5812 15.7188 12.9062 16.3937 12.9062 17.2188V25.8438C12.9062 26.6688 13.5812 27.3438 14.4062 27.3438H18.3438V26.5938H14.4062C13.9926 26.5938 13.6562 26.2574 13.6562 25.8438Z" fill="black"/>
<path d="M35.4062 15.7188H26.7812C25.9562 15.7188 25.2812 16.3937 25.2812 17.2188V22.2812H26.0312V17.2188C26.0312 16.8051 26.3676 16.4688 26.7812 16.4688H35.4062C35.8199 16.4688 36.1562 16.8051 36.1562 17.2188V25.8438C36.1562 26.2574 35.8199 26.5938 35.4062 26.5938H31.4688V27.3438H35.4062C36.2313 27.3438 36.9062 26.6688 36.9062 25.8438V17.2188C36.9062 16.3937 36.2313 15.7188 35.4062 15.7188Z" fill="black"/>
<path d="M29.2188 23.0312H20.5938C19.7687 23.0312 19.0938 23.7062 19.0938 24.5312V33.1562C19.0938 33.9813 19.7687 34.6562 20.5938 34.6562H29.2188C30.0438 34.6562 30.7188 33.9813 30.7188 33.1562V24.5312C30.7188 23.7062 30.0438 23.0312 29.2188 23.0312ZM29.9688 33.1562C29.9688 33.5699 29.6324 33.9062 29.2188 33.9062H20.5938C20.1801 33.9062 19.8438 33.5699 19.8438 33.1562V24.5312C19.8438 24.1176 20.1801 23.7812 20.5938 23.7812H29.2188C29.6324 23.7812 29.9688 24.1176 29.9688 24.5312V33.1562Z" fill="black"/>
<path d="M18.3438 17.2188H15.3438C14.8268 17.2188 14.4062 17.6394 14.4062 18.1562V21.1562C14.4062 21.2599 14.4901 21.3438 14.5938 21.3438C14.6974 21.3438 14.7812 21.2599 14.7812 21.1562V18.1562C14.7812 17.8461 15.0336 17.5938 15.3438 17.5938H18.3438C18.4474 17.5938 18.5312 17.5099 18.5312 17.4062C18.5312 17.3026 18.4474 17.2188 18.3438 17.2188Z" fill="black"/>
<path d="M24.5312 24.5234H21.5312C21.0143 24.5234 20.5938 24.944 20.5938 25.4609V28.4609C20.5938 28.5646 20.6776 28.6484 20.7812 28.6484C20.8849 28.6484 20.9688 28.5646 20.9688 28.4609V25.4609C20.9688 25.1508 21.2211 24.8984 21.5312 24.8984H24.5312C24.6349 24.8984 24.7188 24.8146 24.7188 24.7109C24.7188 24.6073 24.6349 24.5234 24.5312 24.5234Z" fill="black"/>
<path d="M30.7188 17.2188H27.7188C27.2018 17.2188 26.7812 17.6394 26.7812 18.1562V21.1562C26.7812 21.2599 26.8651 21.3438 26.9688 21.3438C27.0724 21.3438 27.1562 21.2599 27.1562 21.1562V18.1562C27.1562 17.8461 27.4086 17.5938 27.7188 17.5938H30.7188C30.8224 17.5938 30.9062 17.5099 30.9062 17.4062C30.9062 17.3026 30.8224 17.2188 30.7188 17.2188Z" fill="black"/>
</g>
<defs>
<clipPath id="clip0_1798_216">
<rect width="24" height="24" fill="white" transform="translate(13 13)"/>
</clipPath>
</defs>
</svg>
