<?xml version="1.0" encoding="UTF-8"?>
<svg id="Layer_2" data-name="Layer 2" xmlns="http://www.w3.org/2000/svg" viewBox="0 0 259.55 109.08">
  <defs>
    <style>
      .cls-1 {
        fill: #010101;
      }
    </style>
  </defs>
  <g id="Layer_1-2" data-name="Layer 1">
    <g>
      <g>
        <path class="cls-1" d="M3.96,44.3c-2.26-1.5-3.58-3.76-3.96-6.79H1.25c.25,2.49,1.36,4.44,3.33,5.83,1.97,1.39,4.77,2.09,8.38,2.09,1.83,0,3.44-.35,4.83-1.06,1.39-.71,2.46-1.65,3.21-2.84,.75-1.18,1.12-2.46,1.12-3.83,0-1.5-.43-2.71-1.28-3.65-.85-.93-1.91-1.65-3.18-2.15-1.27-.5-3-1.04-5.2-1.62-2.45-.62-4.44-1.25-5.95-1.87-1.52-.62-2.8-1.58-3.86-2.87-1.06-1.29-1.59-2.99-1.59-5.11,0-1.5,.46-2.89,1.37-4.17,.91-1.29,2.17-2.32,3.77-3.08,1.6-.77,3.4-1.15,5.39-1.15,3.41,0,6.15,.85,8.23,2.55,2.08,1.7,3.2,4.07,3.37,7.1h-1.25c-.12-2.49-1.07-4.54-2.83-6.14-1.77-1.6-4.27-2.4-7.51-2.4-1.74,0-3.32,.33-4.74,1-1.41,.67-2.52,1.56-3.33,2.68-.81,1.12-1.21,2.33-1.21,3.61,0,1.83,.48,3.3,1.43,4.42s2.13,1.95,3.52,2.49c1.39,.54,3.25,1.12,5.58,1.74,2.37,.67,4.23,1.27,5.58,1.81,1.35,.54,2.5,1.36,3.46,2.46,.96,1.1,1.43,2.54,1.43,4.33,0,1.66-.46,3.17-1.37,4.52-.91,1.35-2.16,2.41-3.74,3.18-1.58,.77-3.34,1.15-5.3,1.15-3.7,0-6.68-.75-8.94-2.24Z"/>
        <path class="cls-1" d="M34.83,13.71v23.55c0,2.04,.23,3.59,.69,4.67,.46,1.08,1.18,1.84,2.18,2.27,1,.44,2.39,.65,4.17,.65h3.55v1.25h-3.68c-2.91,0-5-.66-6.26-1.99-1.27-1.33-1.9-3.61-1.9-6.85V13.71h-5.48v-1.25h5.48V3.86h1.25V12.46h10.59v1.25h-10.59Z"/>
        <path class="cls-1" d="M80.88,12.46V46.11h-1.25v-9.16c-.75,3.2-2.32,5.63-4.7,7.29-2.39,1.66-5.22,2.49-8.51,2.49-3.95,0-7.19-1.22-9.72-3.68-2.53-2.45-3.8-6.15-3.8-11.09V12.46h1.18v19.63c0,4.4,1.1,7.76,3.3,10.06,2.2,2.31,5.21,3.46,9.04,3.46s7.19-1.3,9.6-3.89c2.41-2.6,3.61-6.43,3.61-11.5V12.46h1.25Z"/>
        <path class="cls-1" d="M91.97,20.1c1.37-2.6,3.3-4.59,5.79-5.98,2.49-1.39,5.34-2.09,8.54-2.09,3.86,0,7.13,1.01,9.81,3.02,2.68,2.02,4.48,4.58,5.39,7.7V0h1.18V46.11h-1.18v-10.34c-.91,3.16-2.71,5.74-5.39,7.76-2.68,2.02-5.95,3.02-9.81,3.02-3.2,0-6.04-.69-8.54-2.09-2.49-1.39-4.42-3.39-5.79-5.98-1.37-2.6-2.06-5.66-2.06-9.19s.69-6.59,2.06-9.19Zm27.57,.75c-1.31-2.43-3.12-4.32-5.42-5.67-2.31-1.35-4.91-2.03-7.82-2.03-3.08,0-5.74,.64-8.01,1.93-2.26,1.29-4.02,3.15-5.27,5.58s-1.87,5.31-1.87,8.63,.62,6.2,1.87,8.63c1.25,2.43,3,4.29,5.27,5.58,2.26,1.29,4.93,1.93,8.01,1.93,2.91,0,5.51-.67,7.82-2.02,2.31-1.35,4.11-3.24,5.42-5.67s1.96-5.24,1.96-8.44-.65-6.01-1.96-8.44Z"/>
        <path class="cls-1" d="M132.75,3.4c-.31-.31-.47-.72-.47-1.21s.16-.9,.47-1.22,.7-.47,1.15-.47,.84,.16,1.15,.47,.47,.72,.47,1.22-.16,.9-.47,1.21-.7,.47-1.15,.47-.84-.16-1.15-.47Zm1.78,9.07V46.11h-1.25V12.46h1.25Z"/>
        <path class="cls-1" d="M151.6,44.46c-2.49-1.39-4.46-3.39-5.89-5.98-1.43-2.6-2.15-5.66-2.15-9.19s.72-6.59,2.15-9.19c1.43-2.6,3.4-4.59,5.89-5.98,2.49-1.39,5.3-2.09,8.41-2.09s5.92,.7,8.41,2.09c2.49,1.39,4.44,3.39,5.86,5.98,1.41,2.6,2.12,5.66,2.12,9.19s-.71,6.6-2.12,9.19c-1.41,2.6-3.37,4.59-5.86,5.98-2.49,1.39-5.3,2.09-8.41,2.09s-5.92-.69-8.41-2.09Zm15.89-.81c2.28-1.18,4.13-2.98,5.55-5.39,1.41-2.41,2.12-5.4,2.12-8.97s-.71-6.56-2.12-8.97c-1.41-2.41-3.26-4.21-5.55-5.39-2.29-1.18-4.78-1.78-7.48-1.78s-5.2,.59-7.51,1.78c-2.31,1.18-4.17,2.99-5.58,5.42-1.41,2.43-2.12,5.41-2.12,8.94s.71,6.51,2.12,8.94c1.41,2.43,3.27,4.24,5.58,5.42s4.81,1.78,7.51,1.78,5.19-.59,7.48-1.78Z"/>
      </g>
      <g>
        <path class="cls-1" d="M6.74,107.71c-2.09-.92-3.74-2.22-4.94-3.9C.61,102.13,.01,100.17,.01,97.92H6.85c.15,1.68,.81,3.07,1.99,4.15,1.18,1.08,2.83,1.63,4.96,1.63s3.93-.53,5.16-1.6c1.23-1.07,1.85-2.44,1.85-4.12,0-1.31-.38-2.37-1.15-3.2-.77-.82-1.72-1.46-2.86-1.91s-2.72-.93-4.74-1.46c-2.54-.67-4.61-1.35-6.2-2.05-1.59-.69-2.94-1.77-4.07-3.22-1.12-1.46-1.68-3.4-1.68-5.83,0-2.24,.56-4.21,1.68-5.89,1.12-1.68,2.69-2.97,4.71-3.87,2.02-.9,4.36-1.35,7.01-1.35,3.78,0,6.87,.94,9.28,2.83,2.41,1.89,3.75,4.48,4.01,7.77h-7.07c-.11-1.42-.79-2.64-2.02-3.65-1.23-1.01-2.86-1.51-4.88-1.51-1.83,0-3.33,.47-4.49,1.4-1.16,.94-1.74,2.28-1.74,4.04,0,1.2,.36,2.18,1.09,2.94,.73,.77,1.65,1.37,2.78,1.82,1.12,.45,2.65,.94,4.6,1.46,2.58,.71,4.68,1.42,6.31,2.13,1.63,.71,3.01,1.8,4.15,3.28,1.14,1.48,1.71,3.45,1.71,5.92,0,1.98-.53,3.85-1.6,5.61-1.07,1.76-2.62,3.17-4.66,4.23-2.04,1.07-4.44,1.6-7.21,1.6-2.62,0-4.97-.46-7.07-1.37Z"/>
        <path class="cls-1" d="M58.34,100.73h-16.32l-2.8,7.96h-6.67l13.96-39.03h7.4l13.96,39.03h-6.73l-2.8-7.96Zm-1.79-5.22l-6.34-18.11-6.39,18.11h12.73Z"/>
        <path class="cls-1" d="M105.95,108.69h-6.39l-19.24-29.11v29.11h-6.39v-39.03h6.39l19.24,29.05v-29.05h6.39v39.03Z"/>
        <path class="cls-1" d="M142.57,80.93c-1.01-1.94-2.41-3.41-4.21-4.4-1.79-.99-3.87-1.49-6.23-1.49-2.58,0-4.88,.58-6.9,1.74-2.02,1.16-3.6,2.8-4.74,4.94-1.14,2.13-1.71,4.6-1.71,7.4s.57,5.28,1.71,7.43c1.14,2.15,2.72,3.8,4.74,4.96,2.02,1.16,4.32,1.74,6.9,1.74,3.48,0,6.3-.97,8.47-2.92,2.17-1.94,3.5-4.58,3.98-7.91h-14.64v-5.1h21.48v4.99c-.41,3.03-1.49,5.81-3.22,8.36-1.74,2.54-4,4.57-6.79,6.08-2.79,1.51-5.88,2.27-9.28,2.27-3.66,0-7.01-.85-10.04-2.55-3.03-1.7-5.43-4.07-7.21-7.09-1.78-3.03-2.66-6.45-2.66-10.26s.89-7.23,2.66-10.26c1.78-3.03,4.19-5.39,7.23-7.09,3.05-1.7,6.38-2.55,10.01-2.55,4.15,0,7.84,1.02,11.08,3.06,3.23,2.04,5.58,4.93,7.04,8.66h-7.68Z"/>
        <path class="cls-1" d="M181.21,100.73h-16.32l-2.8,7.96h-6.67l13.96-39.03h7.4l13.96,39.03h-6.73l-2.8-7.96Zm-1.79-5.22l-6.34-18.11-6.39,18.11h12.73Z"/>
        <path class="cls-1" d="M221.98,69.71v5.22h-10.38v33.76h-6.39v-33.76h-10.43v-5.22h27.2Z"/>
        <path class="cls-1" d="M259.55,69.71v38.98h-6.39v-17.05h-18.34v17.05h-6.39v-38.98h6.39v16.71h18.34v-16.71h6.39Z"/>
      </g>
    </g>
  </g>
</svg>