<svg width="50" height="50" viewBox="0 0 50 50" fill="none" xmlns="http://www.w3.org/2000/svg">
<path d="M23 1.1547C24.2376 0.440169 25.7624 0.440169 27 1.1547L44.6506 11.3453C45.8882 12.0598 46.6506 13.3803 46.6506 14.8094V35.1906C46.6506 36.6197 45.8882 37.9402 44.6506 38.6547L27 48.8453C25.7624 49.5598 24.2376 49.5598 23 48.8453L5.34936 38.6547C4.11176 37.9402 3.34937 36.6197 3.34937 35.1906V14.8094C3.34937 13.3803 4.11176 12.0598 5.34937 11.3453L23 1.1547Z" fill="#F5F5F5"/>
<path fill-rule="evenodd" clip-rule="evenodd" d="M24.9574 14.1231C24.9128 14.123 24.8686 14.1309 24.8268 14.1464L14.365 18.067C14.2942 18.0941 14.2333 18.1421 14.1904 18.2047C14.1476 18.2672 14.1247 18.3414 14.125 18.4172V35.4142C14.1254 35.5129 14.1648 35.6074 14.2347 35.6771C14.3045 35.7469 14.3991 35.7861 14.4978 35.7863H35.4147C35.5138 35.7867 35.6089 35.7477 35.6793 35.6779C35.7496 35.6081 35.7893 35.5133 35.7897 35.4142V18.4172C35.7898 18.3411 35.7667 18.2668 35.7234 18.2042C35.6801 18.1416 35.6187 18.0938 35.5475 18.067L25.0887 14.1464C25.0467 14.1308 25.0022 14.1229 24.9574 14.1231ZM24.9559 14.8935L35.0427 18.6769V35.0385H33.2698V20.5438C33.2696 20.445 33.2303 20.3503 33.1604 20.2804C33.0906 20.2106 32.9959 20.1712 32.897 20.171H17.0147C16.9161 20.1714 16.8215 20.2108 16.7518 20.2807C16.6821 20.3505 16.6429 20.4451 16.6427 20.5438V35.0385H14.8728V18.6769L24.9559 14.8935ZM22.8825 17.6979C22.784 17.6982 22.6895 17.7376 22.6199 17.8073C22.5502 17.8769 22.5108 17.9714 22.5104 18.0699C22.5103 18.119 22.5197 18.1676 22.5383 18.213C22.5569 18.2584 22.5843 18.2997 22.6188 18.3345C22.6534 18.3693 22.6944 18.397 22.7397 18.4159C22.7849 18.4349 22.8335 18.4447 22.8825 18.4449H27.03C27.0793 18.4451 27.1282 18.4355 27.1737 18.4168C27.2193 18.398 27.2607 18.3704 27.2956 18.3355C27.3305 18.3006 27.3581 18.2592 27.3768 18.2137C27.3956 18.1681 27.4052 18.1192 27.405 18.0699C27.4048 18.0209 27.395 17.9723 27.376 17.9271C27.3571 17.8818 27.3294 17.8408 27.2946 17.8062C27.2597 17.7717 27.2185 17.7443 27.1731 17.7257C27.1277 17.7071 27.0791 17.6977 27.03 17.6979H22.8825ZM17.3897 20.9188H32.525V35.0385H30.6748V30.0674C30.6744 29.9688 30.6351 29.8744 30.5654 29.8047C30.4957 29.735 30.4013 29.6957 30.3028 29.6953H28.0032V24.7234C28.0028 24.6243 27.9631 24.5295 27.8928 24.4597C27.8225 24.3899 27.7273 24.351 27.6282 24.3513H22.2843C22.1852 24.351 22.0901 24.39 22.0197 24.4597C21.9494 24.5295 21.9097 24.6243 21.9093 24.7234V29.6953H19.6127C19.5136 29.6949 19.4185 29.7339 19.3481 29.8037C19.2778 29.8735 19.2381 29.9683 19.2377 30.0674V35.0385H17.3897L17.3897 20.9188ZM22.6564 25.0962H23.7069V26.8442C23.7065 26.9433 23.7455 27.0384 23.8153 27.1088C23.8851 27.1791 23.9799 27.2188 24.079 27.2192H25.8328C25.8821 27.2194 25.931 27.2098 25.9765 27.191C26.0221 27.1723 26.0635 27.1446 26.0984 27.1098C26.1332 27.0749 26.1609 27.0335 26.1796 26.9879C26.1984 26.9424 26.208 26.8935 26.2078 26.8442V25.0962H27.2554V29.6953H23.1612H22.6564L22.6564 25.0962ZM24.4518 25.0962H25.4607V26.4714H24.4518L24.4518 25.0962ZM19.9847 30.4424H21.0324V32.1904C21.0328 32.2894 21.0725 32.3843 21.1428 32.454C21.2131 32.5238 21.3083 32.5628 21.4074 32.5624H23.1612C23.2598 32.562 23.3542 32.5227 23.4239 32.453C23.4936 32.3833 23.5329 32.2889 23.5333 32.1904V30.4424H24.5838V35.0385H19.9847V30.4424ZM21.7794 30.4424H22.7891V31.8154H21.7794V30.4424ZM25.3309 30.4424H26.3792V32.1904C26.3796 32.2889 26.419 32.3833 26.4887 32.453C26.5584 32.5227 26.6528 32.562 26.7513 32.5624H28.5052C28.6042 32.5628 28.6994 32.5238 28.7697 32.454C28.84 32.3843 28.8797 32.2894 28.8801 32.1904V30.4424H29.9278V35.0385H25.3309V30.4424ZM27.1263 30.4424H27.6282H28.1324V31.8154H27.1263V30.4424Z" fill="black"/>
</svg>
