<svg width="297" height="420" viewBox="0 0 297 420" fill="none" xmlns="http://www.w3.org/2000/svg">
<rect width="297" height="420" fill="white"/>
<circle cx="147.873" cy="185.127" r="134.127" fill="#851111"/>
<path d="M134.102 202.611C134.102 206.951 133.044 210.905 130.926 214.474C128.905 217.946 126.114 220.743 122.553 222.865C118.993 224.986 115.047 226.047 110.716 226.047H43.2991V211.581H110.716C113.218 211.581 115.335 210.713 117.068 208.977C118.896 207.241 119.811 205.119 119.811 202.611C119.811 200.104 118.896 197.982 117.068 196.246C115.335 194.413 113.218 193.497 110.716 193.497H66.5413C62.3067 193.497 58.4089 192.436 54.848 190.315C51.3834 188.193 48.5924 185.348 46.4751 181.779C44.3578 178.211 43.2991 174.256 43.2991 169.916C43.2991 165.673 44.3578 161.767 46.4751 158.198C48.5924 154.63 51.3834 151.785 54.848 149.663C58.4089 147.541 62.3067 146.48 66.5413 146.48H128.761V160.802H66.5413C64.1353 160.802 62.018 161.719 60.1894 163.551C58.4571 165.287 57.5909 167.409 57.5909 169.916C57.5909 172.424 58.4571 174.594 60.1894 176.426C62.018 178.162 64.1353 179.03 66.5413 179.03H110.716C115.047 179.03 118.993 180.091 122.553 182.213C126.114 184.335 128.905 187.18 130.926 190.748C133.044 194.317 134.102 198.271 134.102 202.611Z" fill="white"/>
<path d="M250.173 196.969C250.173 202.274 248.874 207.144 246.275 211.581C243.677 216.017 240.164 219.537 235.737 222.141C231.31 224.745 226.402 226.047 221.012 226.047C216.778 226.047 212.784 225.131 209.03 223.299C205.373 221.466 202.197 219.007 199.502 215.921C196.808 219.007 193.535 221.466 189.686 223.299C185.836 225.131 181.698 226.047 177.271 226.047C171.978 226.047 167.117 224.745 162.69 222.141C158.359 219.537 154.847 216.017 152.152 211.581C149.553 207.144 148.254 202.274 148.254 196.969V146.48H162.69V196.969C162.69 201.116 164.086 204.588 166.877 207.385C169.764 210.182 173.229 211.581 177.271 211.581C181.409 211.581 184.874 210.182 187.665 207.385C190.552 204.588 191.996 201.116 191.996 196.969V146.48H206.576V195.233C206.576 199.766 207.972 203.624 210.763 206.807C213.554 209.989 216.97 211.581 221.012 211.581C225.151 211.581 228.615 210.182 231.406 207.385C234.293 204.588 235.737 201.116 235.737 196.969V146.48H250.173V196.969Z" fill="white"/>
<path d="M22.725 369.2C21.3917 369.2 20.1167 369 18.9 368.6C17.6833 368.183 16.725 367.65 16.025 367L16.95 365.05C17.6167 365.633 18.4667 366.117 19.5 366.5C20.5333 366.883 21.6083 367.075 22.725 367.075C23.7417 367.075 24.5667 366.958 25.2 366.725C25.8333 366.492 26.3 366.175 26.6 365.775C26.9 365.358 27.05 364.892 27.05 364.375C27.05 363.775 26.85 363.292 26.45 362.925C26.0667 362.558 25.5583 362.267 24.925 362.05C24.3083 361.817 23.625 361.617 22.875 361.45C22.125 361.283 21.3667 361.092 20.6 360.875C19.85 360.642 19.1583 360.35 18.525 360C17.9083 359.65 17.4083 359.183 17.025 358.6C16.6417 358 16.45 357.233 16.45 356.3C16.45 355.4 16.6833 354.575 17.15 353.825C17.6333 353.058 18.3667 352.45 19.35 352C20.35 351.533 21.6167 351.3 23.15 351.3C24.1667 351.3 25.175 351.433 26.175 351.7C27.175 351.967 28.0417 352.35 28.775 352.85L27.95 354.85C27.2 354.35 26.4083 353.992 25.575 353.775C24.7417 353.542 23.9333 353.425 23.15 353.425C22.1667 353.425 21.3583 353.55 20.725 353.8C20.0917 354.05 19.625 354.383 19.325 354.8C19.0417 355.217 18.9 355.683 18.9 356.2C18.9 356.817 19.0917 357.308 19.475 357.675C19.875 358.042 20.3833 358.333 21 358.55C21.6333 358.767 22.325 358.967 23.075 359.15C23.825 359.317 24.575 359.508 25.325 359.725C26.0917 359.942 26.7833 360.225 27.4 360.575C28.0333 360.925 28.5417 361.392 28.925 361.975C29.3083 362.558 29.5 363.308 29.5 364.225C29.5 365.108 29.2583 365.933 28.775 366.7C28.2917 367.45 27.5417 368.058 26.525 368.525C25.525 368.975 24.2583 369.2 22.725 369.2ZM43.3412 369V353.675H37.3412V351.5H51.8162V353.675H45.8162V369H43.3412ZM68.5029 369.2C66.2029 369.2 64.3946 368.542 63.0779 367.225C61.7613 365.908 61.1029 363.983 61.1029 361.45V351.5H63.6029V361.35C63.6029 363.3 64.0279 364.725 64.8779 365.625C65.7446 366.525 66.9613 366.975 68.5279 366.975C70.1113 366.975 71.3279 366.525 72.1779 365.625C73.0446 364.725 73.4779 363.3 73.4779 361.35V351.5H75.9029V361.45C75.9029 363.983 75.2446 365.908 73.9279 367.225C72.6279 368.542 70.8196 369.2 68.5029 369.2ZM87.7422 369V351.5H95.1172C96.9839 351.5 98.6255 351.867 100.042 352.6C101.476 353.333 102.584 354.358 103.367 355.675C104.167 356.992 104.567 358.517 104.567 360.25C104.567 361.983 104.167 363.508 103.367 364.825C102.584 366.142 101.476 367.167 100.042 367.9C98.6255 368.633 96.9839 369 95.1172 369H87.7422ZM90.2422 366.825H94.9672C96.4172 366.825 97.6672 366.55 98.7172 366C99.7839 365.45 100.609 364.683 101.192 363.7C101.776 362.7 102.067 361.55 102.067 360.25C102.067 358.933 101.776 357.783 101.192 356.8C100.609 355.817 99.7839 355.05 98.7172 354.5C97.6672 353.95 96.4172 353.675 94.9672 353.675H90.2422V366.825ZM115.11 369V351.5H117.61V369H115.11ZM137.463 369.2C136.13 369.2 134.888 368.975 133.738 368.525C132.605 368.075 131.622 367.45 130.788 366.65C129.955 365.833 129.305 364.883 128.838 363.8C128.372 362.717 128.138 361.533 128.138 360.25C128.138 358.967 128.372 357.783 128.838 356.7C129.305 355.617 129.955 354.675 130.788 353.875C131.622 353.058 132.605 352.425 133.738 351.975C134.872 351.525 136.113 351.3 137.463 351.3C138.797 351.3 140.022 351.525 141.138 351.975C142.272 352.408 143.255 353.033 144.088 353.85C144.938 354.65 145.588 355.592 146.038 356.675C146.505 357.758 146.738 358.95 146.738 360.25C146.738 361.55 146.505 362.742 146.038 363.825C145.588 364.908 144.938 365.858 144.088 366.675C143.255 367.475 142.272 368.1 141.138 368.55C140.022 368.983 138.797 369.2 137.463 369.2ZM137.463 366.975C138.43 366.975 139.322 366.808 140.138 366.475C140.972 366.142 141.688 365.675 142.288 365.075C142.905 364.458 143.38 363.742 143.713 362.925C144.063 362.108 144.238 361.217 144.238 360.25C144.238 359.283 144.063 358.392 143.713 357.575C143.38 356.758 142.905 356.05 142.288 355.45C141.688 354.833 140.972 354.358 140.138 354.025C139.322 353.692 138.43 353.525 137.463 353.525C136.48 353.525 135.572 353.692 134.738 354.025C133.922 354.358 133.205 354.833 132.588 355.45C131.972 356.05 131.488 356.758 131.138 357.575C130.805 358.392 130.638 359.283 130.638 360.25C130.638 361.217 130.805 362.108 131.138 362.925C131.488 363.742 131.972 364.458 132.588 365.075C133.205 365.675 133.922 366.142 134.738 366.475C135.572 366.808 136.48 366.975 137.463 366.975ZM161.298 369L155.448 351.5H158.023L163.398 367.65H162.098L167.673 351.5H169.973L175.423 367.65H174.173L179.623 351.5H181.998L176.148 369H173.523L168.423 354.025H169.098L163.973 369H161.298ZM200.037 369.2C198.703 369.2 197.462 368.975 196.312 368.525C195.178 368.075 194.195 367.45 193.362 366.65C192.528 365.833 191.878 364.883 191.412 363.8C190.945 362.717 190.712 361.533 190.712 360.25C190.712 358.967 190.945 357.783 191.412 356.7C191.878 355.617 192.528 354.675 193.362 353.875C194.195 353.058 195.178 352.425 196.312 351.975C197.445 351.525 198.687 351.3 200.037 351.3C201.37 351.3 202.595 351.525 203.712 351.975C204.845 352.408 205.828 353.033 206.662 353.85C207.512 354.65 208.162 355.592 208.612 356.675C209.078 357.758 209.312 358.95 209.312 360.25C209.312 361.55 209.078 362.742 208.612 363.825C208.162 364.908 207.512 365.858 206.662 366.675C205.828 367.475 204.845 368.1 203.712 368.55C202.595 368.983 201.37 369.2 200.037 369.2ZM200.037 366.975C201.003 366.975 201.895 366.808 202.712 366.475C203.545 366.142 204.262 365.675 204.862 365.075C205.478 364.458 205.953 363.742 206.287 362.925C206.637 362.108 206.812 361.217 206.812 360.25C206.812 359.283 206.637 358.392 206.287 357.575C205.953 356.758 205.478 356.05 204.862 355.45C204.262 354.833 203.545 354.358 202.712 354.025C201.895 353.692 201.003 353.525 200.037 353.525C199.053 353.525 198.145 353.692 197.312 354.025C196.495 354.358 195.778 354.833 195.162 355.45C194.545 356.05 194.062 356.758 193.712 357.575C193.378 358.392 193.212 359.283 193.212 360.25C193.212 361.217 193.378 362.108 193.712 362.925C194.062 363.742 194.545 364.458 195.162 365.075C195.778 365.675 196.495 366.142 197.312 366.475C198.145 366.808 199.053 366.975 200.037 366.975ZM219.847 369V351.5H226.672C228.205 351.5 229.513 351.742 230.597 352.225C231.68 352.708 232.513 353.408 233.097 354.325C233.68 355.242 233.972 356.333 233.972 357.6C233.972 358.867 233.68 359.958 233.097 360.875C232.513 361.775 231.68 362.467 230.597 362.95C229.513 363.433 228.205 363.675 226.672 363.675H221.222L222.347 362.525V369H219.847ZM231.547 369L227.097 362.65H229.772L234.272 369H231.547ZM222.347 362.775L221.222 361.55H226.597C228.197 361.55 229.405 361.208 230.222 360.525C231.055 359.825 231.472 358.85 231.472 357.6C231.472 356.35 231.055 355.383 230.222 354.7C229.405 354.017 228.197 353.675 226.597 353.675H221.222L222.347 352.425V362.775ZM246.925 364.775L246.8 361.725L256.725 351.5H259.575L251.9 359.6L250.5 361.15L246.925 364.775ZM244.725 369V351.5H247.225V369H244.725ZM257.125 369L249.95 360.65L251.625 358.8L260.05 369H257.125ZM274.507 369.2C273.174 369.2 271.899 369 270.682 368.6C269.466 368.183 268.507 367.65 267.807 367L268.732 365.05C269.399 365.633 270.249 366.117 271.282 366.5C272.316 366.883 273.391 367.075 274.507 367.075C275.524 367.075 276.349 366.958 276.982 366.725C277.616 366.492 278.082 366.175 278.382 365.775C278.682 365.358 278.832 364.892 278.832 364.375C278.832 363.775 278.632 363.292 278.232 362.925C277.849 362.558 277.341 362.267 276.707 362.05C276.091 361.817 275.407 361.617 274.657 361.45C273.907 361.283 273.149 361.092 272.382 360.875C271.632 360.642 270.941 360.35 270.307 360C269.691 359.65 269.191 359.183 268.807 358.6C268.424 358 268.232 357.233 268.232 356.3C268.232 355.4 268.466 354.575 268.932 353.825C269.416 353.058 270.149 352.45 271.132 352C272.132 351.533 273.399 351.3 274.932 351.3C275.949 351.3 276.957 351.433 277.957 351.7C278.957 351.967 279.824 352.35 280.557 352.85L279.732 354.85C278.982 354.35 278.191 353.992 277.357 353.775C276.524 353.542 275.716 353.425 274.932 353.425C273.949 353.425 273.141 353.55 272.507 353.8C271.874 354.05 271.407 354.383 271.107 354.8C270.824 355.217 270.682 355.683 270.682 356.2C270.682 356.817 270.874 357.308 271.257 357.675C271.657 358.042 272.166 358.333 272.782 358.55C273.416 358.767 274.107 358.967 274.857 359.15C275.607 359.317 276.357 359.508 277.107 359.725C277.874 359.942 278.566 360.225 279.182 360.575C279.816 360.925 280.324 361.392 280.707 361.975C281.091 362.558 281.282 363.308 281.282 364.225C281.282 365.108 281.041 365.933 280.557 366.7C280.074 367.45 279.324 368.058 278.307 368.525C277.307 368.975 276.041 369.2 274.507 369.2Z" fill="#851111"/>
</svg>
